<svg xmlns="http://www.w3.org/2000/svg" xmlns:xlink="http://www.w3.org/1999/xlink" version="1.1" width="50" height="50" viewBox="0 0 50 50" xml:space="preserve">
<desc>Created with Fabric.js 3.5.0</desc>
<defs>
</defs>
<rect x="0" y="0" width="100%" height="100%" fill="rgba(255,255,255,0)"/>
<g transform="matrix(1.612 0 0 1.612 26.0003 26.0003)" id="822064">
<g style="" vector-effect="non-scaling-stroke">
		<g transform="matrix(1 0 0 1 3.4848 -2.5153)" id="Desktop19">
<path style="stroke: none; stroke-width: 1; stroke-dasharray: none; stroke-linecap: butt; stroke-dashoffset: 0; stroke-linejoin: miter; stroke-miterlimit: 4; is-custom-font: none; font-file-url: none; fill: rgb(63,81,181); fill-rule: nonzero; opacity: 1;" transform=" translate(-19.4848, -13.4848)" d="M 22.5898 17.5898 c -0.2559 0 -0.5117 -0.0977 -0.707 -0.293 l -6.21 -6.21 c -0.3906 -0.3906 -0.3906 -1.0234 0 -1.4141 s 1.0234 -0.3906 1.4141 0 l 6.21 6.21 c 0.3906 0.3906 0.3906 1.0234 0 1.4141 C 23.1016 17.4922 22.8457 17.5898 22.5898 17.5898 z" stroke-linecap="round"/>
</g>
		<g transform="matrix(1 0 0 1 4.5602 5.4399)" id="Desktop19">
<path style="stroke: none; stroke-width: 1; stroke-dasharray: none; stroke-linecap: butt; stroke-dashoffset: 0; stroke-linejoin: miter; stroke-miterlimit: 4; is-custom-font: none; font-file-url: none; fill: rgb(63,81,181); fill-rule: nonzero; opacity: 1;" transform=" translate(-20.5602, -21.4399)" d="M 18.5303 24.4697 c -0.2559 0 -0.5117 -0.0977 -0.707 -0.293 c -0.3906 -0.3906 -0.3906 -1.0234 0 -1.4141 l 4.0596 -4.0596 c 0.3906 -0.3906 1.0234 -0.3906 1.4141 0 s 0.3906 1.0234 0 1.4141 l -4.0596 4.0596 C 19.042 24.3721 18.7861 24.4697 18.5303 24.4697 z" stroke-linecap="round"/>
</g>
		<g transform="matrix(1 0 0 1 0 10.5)" id="Desktop19">
<path style="stroke: none; stroke-width: 1; stroke-dasharray: none; stroke-linecap: butt; stroke-dashoffset: 0; stroke-linejoin: miter; stroke-miterlimit: 4; is-custom-font: none; font-file-url: none; fill: rgb(63,81,181); fill-rule: nonzero; opacity: 1;" transform=" translate(-16, -26.5)" d="M 24 30 c 0 0.55 -0.45 1 -1 1 H 9 c -0.55 0 -1 -0.45 -1 -1 c 0 -4.41 3.59 -8 8 -8 S 24 25.59 24 30 z" stroke-linecap="round"/>
</g>
		<g transform="matrix(1 0 0 1 -7.5107 -3.4909)" id="Desktop19">
<path style="stroke: none; stroke-width: 1; stroke-dasharray: none; stroke-linecap: butt; stroke-dashoffset: 0; stroke-linejoin: miter; stroke-miterlimit: 4; is-custom-font: none; font-file-url: none; fill: rgb(255,193,10); fill-rule: nonzero; opacity: 1;" transform=" translate(-8.4893, -12.509)" d="M 11.97 12.96 C 11.74 14.69 10.25 16 8.5 16 C 6.57 16 5 14.43 5 12.5 c 0 -1.75 1.31 -3.24 3.04 -3.47 c 0.3 -0.05 0.62 0.06 0.84 0.28 l 2.81 2.81 C 11.91 12.34 12.01 12.65 11.97 12.96 z" stroke-linecap="round"/>
</g>
		<g transform="matrix(1 0 0 1 -3.4815 -7.5198)" id="Desktop19">
<path style="stroke: none; stroke-width: 1; stroke-dasharray: none; stroke-linecap: butt; stroke-dashoffset: 0; stroke-linejoin: miter; stroke-miterlimit: 4; is-custom-font: none; font-file-url: none; fill: rgb(33,151,243); fill-rule: nonzero; opacity: 1;" transform=" translate(-12.5185, -8.4802)" d="M 19.81 7.29 l -5.89 8.25 c -0.17 0.24 -0.43 0.39 -0.73 0.42 h -0.08 c -0.26 0 -0.52 -0.1 -0.71 -0.29 L 5.33 8.6 C 5.12 8.39 5.02 8.1 5.04 7.81 c 0.03 -0.3 0.18 -0.56 0.42 -0.73 l 8.25 -5.89 C 14.1 0.9 14.65 0.95 15 1.29 L 19.71 6 C 20.05 6.35 20.1 6.89 19.81 7.29 z" stroke-linecap="round"/>
</g>
		<g transform="matrix(1 0 0 1 8 2)" id="Desktop19">
<path style="stroke: none; stroke-width: 1; stroke-dasharray: none; stroke-linecap: butt; stroke-dashoffset: 0; stroke-linejoin: miter; stroke-miterlimit: 4; is-custom-font: none; font-file-url: none; fill: rgb(255,193,10); fill-rule: nonzero; opacity: 1;" transform=" translate(-24, -18)" d="M 27 18 c 0 1.65 -1.35 3 -3 3 c -0.81 0 -1.57 -0.32 -2.13 -0.89 C 21.32 19.57 21 18.81 21 18 s 0.32 -1.57 0.89 -2.13 C 22.43 15.32 23.19 15 24 15 C 25.65 15 27 16.35 27 18 z" stroke-linecap="round"/>
</g>
</g>
</g>
</svg>