<svg xmlns="http://www.w3.org/2000/svg" xmlns:xlink="http://www.w3.org/1999/xlink" version="1.1" width="300" height="70" viewBox="0 0 300 70" xml:space="preserve">
<desc>Created with Fabric.js 3.5.0</desc>
<defs>
</defs>
<rect x="0" y="0" width="100%" height="100%" fill="rgba(245,245,245,0)"/>
<g transform="matrix(1 0 0 1 150 35)" style="" id="282042">
		
<path xml:space="preserve" font-family="Quicksand" font-size="60" font-weight="bold" style="stroke: none; stroke-width: 0; stroke-dasharray: none; stroke-linecap: butt; stroke-dashoffset: 0; stroke-linejoin: miter; stroke-miterlimit: 4; is-custom-font: none; font-file-url: none; fill: rgb(57,81,220); fill-rule: nonzero; opacity: 1; white-space: pre;" d="M-78.39 19.45L-78.39 19.45Q-82.59 19.45-85.95 18.40Q-89.31 17.35-92.37 14.71L-92.37 14.71Q-93.15 14.05-93.57 13.21Q-93.99 12.37-93.99 11.53L-93.99 11.53Q-93.99 10.15-93 9.10Q-92.01 8.05-90.51 8.05L-90.51 8.05Q-89.37 8.05-88.47 8.77L-88.47 8.77Q-86.19 10.63-83.94 11.59Q-81.69 12.55-78.39 12.55L-78.39 12.55Q-76.17 12.55-74.31 11.86Q-72.45 11.17-71.31 10.00Q-70.17 8.83-70.17 7.33L-70.17 7.33Q-70.17 5.53-71.25 4.27Q-72.33 3.01-74.55 2.14Q-76.77 1.27-80.19 0.79L-80.19 0.79Q-83.43 0.31-85.89-0.68Q-88.35-1.67-90-3.20Q-91.65-4.73-92.49-6.80Q-93.33-8.87-93.33-11.45L-93.33-11.45Q-93.33-15.35-91.32-18.11Q-89.31-20.87-85.89-22.31Q-82.47-23.75-78.33-23.75L-78.33-23.75Q-74.43-23.75-71.10-22.58Q-67.77-21.41-65.67-19.61L-65.67-19.61Q-63.93-18.23-63.93-16.43L-63.93-16.43Q-63.93-15.11-64.95-14.03Q-65.97-12.95-67.35-12.95L-67.35-12.95Q-68.25-12.95-68.97-13.49L-68.97-13.49Q-69.93-14.33-71.55-15.08Q-73.17-15.83-74.97-16.34Q-76.77-16.85-78.33-16.85L-78.33-16.85Q-80.91-16.85-82.68-16.19Q-84.45-15.53-85.35-14.39Q-86.25-13.25-86.25-11.75L-86.25-11.75Q-86.25-9.95-85.20-8.78Q-84.15-7.61-82.17-6.92Q-80.19-6.23-77.43-5.69L-77.43-5.69Q-73.83-5.03-71.10-4.13Q-68.37-3.23-66.57-1.82Q-64.77-0.41-63.87 1.72Q-62.97 3.85-62.97 6.91L-62.97 6.91Q-62.97 10.81-65.13 13.63Q-67.29 16.45-70.80 17.95Q-74.31 19.45-78.39 19.45ZM-41.85 18.85L-41.85 18.85Q-43.53 18.85-44.61 17.80Q-45.69 16.75-45.69 15.19L-45.69 15.19L-45.69-19.61L-37.89-19.61L-37.89 15.19Q-37.89 16.75-39 17.80Q-40.11 18.85-41.85 18.85ZM-28.47-16.25L-55.11-16.25Q-56.67-16.25-57.72-17.21Q-58.77-18.17-58.77-19.73L-58.77-19.73Q-58.77-21.29-57.72-22.22Q-56.67-23.15-55.11-23.15L-55.11-23.15L-28.47-23.15Q-26.91-23.15-25.86-22.19Q-24.81-21.23-24.81-19.67L-24.81-19.67Q-24.81-18.11-25.86-17.18Q-26.91-16.25-28.47-16.25L-28.47-16.25ZM11.31-23.21L11.31-23.21Q12.87-23.21 13.83-22.16Q14.79-21.11 14.79-19.55L14.79-19.55L14.79 2.17Q14.79 7.15 12.66 10.99Q10.53 14.83 6.81 16.99Q3.09 19.15-1.83 19.15L-1.83 19.15Q-6.75 19.15-10.50 16.99Q-14.25 14.83-16.38 10.99Q-18.51 7.15-18.51 2.17L-18.51 2.17L-18.51-19.55Q-18.51-21.11-17.43-22.16Q-16.35-23.21-14.67-23.21L-14.67-23.21Q-13.29-23.21-12.18-22.16Q-11.07-21.11-11.07-19.55L-11.07-19.55L-11.07 2.17Q-11.07 5.17-9.78 7.36Q-8.49 9.55-6.36 10.75Q-4.23 11.95-1.83 11.95L-1.83 11.95Q0.75 11.95 2.97 10.75Q5.19 9.55 6.57 7.36Q7.95 5.17 7.95 2.17L7.95 2.17L7.95-19.55Q7.95-21.11 8.85-22.16Q9.75-23.21 11.31-23.21ZM27.45-23.15L41.79-23.15Q46.11-23.15 49.47-21.53Q52.83-19.91 55.14-17.00Q57.45-14.09 58.62-10.28Q59.79-6.47 59.79-2.15L59.79-2.15Q59.79 3.67 57.69 8.44Q55.59 13.21 51.60 16.03Q47.61 18.85 41.79 18.85L41.79 18.85L27.45 18.85Q25.89 18.85 24.84 17.80Q23.79 16.75 23.79 15.19L23.79 15.19L23.79-19.49Q23.79-21.05 24.84-22.10Q25.89-23.15 27.45-23.15L27.45-23.15ZM30.93 11.95L41.19 11.95Q44.97 11.95 47.37 10.00Q49.77 8.05 50.88 4.84Q51.99 1.63 51.99-2.15L51.99-2.15Q51.99-4.97 51.36-7.52Q50.73-10.07 49.41-12.02Q48.09-13.97 46.05-15.11Q44.01-16.25 41.19-16.25L41.19-16.25L30.69-16.25L31.29-16.79L31.29 12.61L30.93 11.95ZM91.89-23.33L91.89-23.33Q93.27-23.33 94.38-22.28Q95.49-21.23 95.49-19.61L95.49-19.61Q95.49-19.07 95.34-18.50Q95.19-17.93 94.83-17.39L94.83-17.39L81.21 2.11L82.29-2.03L82.29 15.19Q82.29 16.75 81.24 17.80Q80.19 18.85 78.81 18.85L78.81 18.85Q77.31 18.85 76.26 17.80Q75.21 16.75 75.21 15.19L75.21 15.19L75.21-1.55L75.69 0.37L62.73-16.85Q62.13-17.63 61.89-18.35Q61.65-19.07 61.65-19.67L61.65-19.67Q61.65-21.29 62.91-22.31Q64.17-23.33 65.49-23.33L65.49-23.33Q67.17-23.33 68.43-21.65L68.43-21.65L79.95-5.75L78.27-5.99L88.89-21.53Q90.15-23.33 91.89-23.33Z"/></g>
<g transform="matrix(1 0 0 1 266.9011 53.3151)" style="" id="174776">
		
<path xml:space="preserve" font-family="Aclonica" font-size="32" font-weight="normal" style="stroke: none; stroke-width: 0; stroke-dasharray: none; stroke-linecap: butt; stroke-dashoffset: 0; stroke-linejoin: miter; stroke-miterlimit: 4; is-custom-font: none; font-file-url: none; fill: rgb(247,147,30); fill-rule: nonzero; opacity: 1; white-space: pre;" d="M-12.58-0.29L-12.58-0.29Q-12.58 1.54-13.02 3.52Q-13.47 5.51-14.27 7.41Q-15.06 9.32-16.17 11.00Q-17.28 12.68-18.61 13.90L-18.61 13.90L-20.59 12.82Q-20.17 12.04-19.80 11.07Q-19.42 10.10-19.12 9.01Q-18.81 7.93-18.57 6.77Q-18.33 5.62-18.16 4.48Q-18.00 3.35-17.91 2.28Q-17.83 1.21-17.83 0.29L-17.83 0.29Q-17.83-0.32-17.87-1.02Q-17.92-1.71-18.07-2.41Q-18.22-3.10-18.47-3.74Q-18.72-4.38-19.13-4.87Q-19.55-5.35-20.13-5.65Q-20.72-5.95-21.52-5.95L-21.52-5.95Q-22.30-5.95-22.91-5.60Q-23.52-5.24-23.98-4.67Q-24.45-4.10-24.79-3.37Q-25.12-2.63-25.34-1.86Q-25.55-1.09-25.64-0.34Q-25.73 0.41-25.73 1.01L-25.73 1.01L-25.73 10.05L-31.03 10.05L-31.03-14.63L-25.75-14.63L-25.75-5.34Q-24.73-6.82-23.26-7.63Q-21.78-8.43-19.98-8.43L-19.98-8.43Q-18.11-8.43-16.72-7.82Q-15.33-7.21-14.41-6.13Q-13.48-5.04-13.03-3.55Q-12.58-2.06-12.58-0.29ZM-10.02 2.33L-10.02 2.33Q-10.02 1.10-9.80-0.23Q-9.59-1.56-9.20-2.88Q-8.80-4.21-8.23-5.51Q-7.67-6.81-6.97-7.99L-6.97-7.99L-3.11-7.99Q-3.50-6.82-3.80-5.55Q-4.11-4.28-4.32-3.00Q-4.53-1.73-4.65-0.51Q-4.77 0.71-4.77 1.76L-4.77 1.76Q-4.77 2.37-4.71 3.06Q-4.66 3.76-4.52 4.45Q-4.37 5.15-4.12 5.79Q-3.86 6.43-3.45 6.92Q-3.05 7.41-2.46 7.70Q-1.87 7.99-1.08 7.99L-1.08 7.99Q-0.30 7.99 0.32 7.64Q0.94 7.29 1.41 6.72Q1.88 6.15 2.20 5.41Q2.53 4.68 2.74 3.90Q2.95 3.13 3.05 2.39Q3.16 1.65 3.16 1.05L3.16 1.05L3.16-7.99L8.44-7.99L8.44 10.05L6.41 10.05L3.98 5.85Q3.53 6.90 2.88 7.75Q2.23 8.60 1.41 9.21Q0.58 9.82-0.43 10.15Q-1.44 10.47-2.61 10.47L-2.61 10.47Q-4.48 10.47-5.87 9.87Q-7.27 9.26-8.19 8.18Q-9.11 7.10-9.56 5.61Q-10.02 4.12-10.02 2.33ZM32.03 1.05L32.03 1.05Q32.03 3.02 31.44 4.74Q30.84 6.46 29.72 7.73Q28.59 9.01 26.97 9.74Q25.34 10.47 23.28 10.47L23.28 10.47Q22.23 10.47 21.29 10.16Q20.34 9.85 19.55 9.28Q18.77 8.71 18.16 7.91Q17.56 7.12 17.22 6.13L17.22 6.13L14.88 10.05L12.84 10.05L12.84-14.63L18.13-14.63L18.13-5.84Q19.06-7.13 20.38-7.74Q21.70-8.35 23.28-8.35L23.28-8.35Q25.34-8.35 26.97-7.62Q28.59-6.88 29.72-5.62Q30.84-4.35 31.44-2.63Q32.03-0.92 32.03 1.05ZM26.67 1.05L26.67 1.05Q26.67 0.37 26.60-0.41Q26.53-1.18 26.36-1.95Q26.19-2.71 25.88-3.42Q25.58-4.12 25.11-4.66Q24.64-5.20 23.98-5.52Q23.33-5.84 22.44-5.84L22.44-5.84Q21.63-5.84 20.99-5.50Q20.36-5.17 19.88-4.60Q19.41-4.04 19.08-3.32Q18.75-2.60 18.55-1.84Q18.34-1.07 18.25-0.32Q18.16 0.43 18.16 1.05L18.16 1.05Q18.16 1.76 18.23 2.54Q18.30 3.32 18.47 4.09Q18.64 4.87 18.95 5.56Q19.25 6.26 19.73 6.79Q20.20 7.33 20.87 7.65Q21.53 7.96 22.44 7.96L22.44 7.96Q23.31 7.96 23.98 7.64Q24.64 7.32 25.11 6.78Q25.58 6.24 25.88 5.53Q26.19 4.82 26.36 4.05Q26.53 3.29 26.60 2.51Q26.67 1.74 26.67 1.05Z"/></g>
<g transform="matrix(2.338 0 0 2.2747 29.9266 35.0001)" id="331221">
<g style="" vector-effect="non-scaling-stroke">
		<g transform="matrix(1 0 0 1 3.4848 -2.5153)" id="796607">
<path style="stroke: none; stroke-width: 1; stroke-dasharray: none; stroke-linecap: butt; stroke-dashoffset: 0; stroke-linejoin: miter; stroke-miterlimit: 4; is-custom-font: none; font-file-url: none; fill: rgb(63,81,181); fill-rule: nonzero; opacity: 1;" transform=" translate(-19.4848, -13.4848)" d="M 22.5898 17.5898 c -0.2559 0 -0.5117 -0.0977 -0.707 -0.293 l -6.21 -6.21 c -0.3906 -0.3906 -0.3906 -1.0234 0 -1.4141 s 1.0234 -0.3906 1.4141 0 l 6.21 6.21 c 0.3906 0.3906 0.3906 1.0234 0 1.4141 C 23.1016 17.4922 22.8457 17.5898 22.5898 17.5898 z" stroke-linecap="round"/>
</g>
		<g transform="matrix(1 0 0 1 4.5602 5.4399)" id="251814">
<path style="stroke: none; stroke-width: 1; stroke-dasharray: none; stroke-linecap: butt; stroke-dashoffset: 0; stroke-linejoin: miter; stroke-miterlimit: 4; is-custom-font: none; font-file-url: none; fill: rgb(63,81,181); fill-rule: nonzero; opacity: 1;" transform=" translate(-20.5602, -21.4399)" d="M 18.5303 24.4697 c -0.2559 0 -0.5117 -0.0977 -0.707 -0.293 c -0.3906 -0.3906 -0.3906 -1.0234 0 -1.4141 l 4.0596 -4.0596 c 0.3906 -0.3906 1.0234 -0.3906 1.4141 0 s 0.3906 1.0234 0 1.4141 l -4.0596 4.0596 C 19.042 24.3721 18.7861 24.4697 18.5303 24.4697 z" stroke-linecap="round"/>
</g>
		<g transform="matrix(1 0 0 1 0 10.5)" id="309996">
<path style="stroke: none; stroke-width: 1; stroke-dasharray: none; stroke-linecap: butt; stroke-dashoffset: 0; stroke-linejoin: miter; stroke-miterlimit: 4; is-custom-font: none; font-file-url: none; fill: rgb(63,81,181); fill-rule: nonzero; opacity: 1;" transform=" translate(-16, -26.5)" d="M 24 30 c 0 0.55 -0.45 1 -1 1 H 9 c -0.55 0 -1 -0.45 -1 -1 c 0 -4.41 3.59 -8 8 -8 S 24 25.59 24 30 z" stroke-linecap="round"/>
</g>
		<g transform="matrix(1 0 0 1 -7.5107 -3.4909)" id="438313">
<path style="stroke: none; stroke-width: 1; stroke-dasharray: none; stroke-linecap: butt; stroke-dashoffset: 0; stroke-linejoin: miter; stroke-miterlimit: 4; is-custom-font: none; font-file-url: none; fill: rgb(255,193,10); fill-rule: nonzero; opacity: 1;" transform=" translate(-8.4893, -12.509)" d="M 11.97 12.96 C 11.74 14.69 10.25 16 8.5 16 C 6.57 16 5 14.43 5 12.5 c 0 -1.75 1.31 -3.24 3.04 -3.47 c 0.3 -0.05 0.62 0.06 0.84 0.28 l 2.81 2.81 C 11.91 12.34 12.01 12.65 11.97 12.96 z" stroke-linecap="round"/>
</g>
		<g transform="matrix(1 0 0 1 -3.4815 -7.5198)" id="603209">
<path style="stroke: none; stroke-width: 1; stroke-dasharray: none; stroke-linecap: butt; stroke-dashoffset: 0; stroke-linejoin: miter; stroke-miterlimit: 4; is-custom-font: none; font-file-url: none; fill: rgb(33,151,243); fill-rule: nonzero; opacity: 1;" transform=" translate(-12.5185, -8.4802)" d="M 19.81 7.29 l -5.89 8.25 c -0.17 0.24 -0.43 0.39 -0.73 0.42 h -0.08 c -0.26 0 -0.52 -0.1 -0.71 -0.29 L 5.33 8.6 C 5.12 8.39 5.02 8.1 5.04 7.81 c 0.03 -0.3 0.18 -0.56 0.42 -0.73 l 8.25 -5.89 C 14.1 0.9 14.65 0.95 15 1.29 L 19.71 6 C 20.05 6.35 20.1 6.89 19.81 7.29 z" stroke-linecap="round"/>
</g>
		<g transform="matrix(1 0 0 1 8 2)" id="806699">
<path style="stroke: none; stroke-width: 1; stroke-dasharray: none; stroke-linecap: butt; stroke-dashoffset: 0; stroke-linejoin: miter; stroke-miterlimit: 4; is-custom-font: none; font-file-url: none; fill: rgb(255,193,10); fill-rule: nonzero; opacity: 1;" transform=" translate(-24, -18)" d="M 27 18 c 0 1.65 -1.35 3 -3 3 c -0.81 0 -1.57 -0.32 -2.13 -0.89 C 21.32 19.57 21 18.81 21 18 s 0.32 -1.57 0.89 -2.13 C 22.43 15.32 23.19 15 24 15 C 25.65 15 27 16.35 27 18 z" stroke-linecap="round"/>
</g>
</g>
</g>
</svg>