<svg xmlns="http://www.w3.org/2000/svg" xmlns:xlink="http://www.w3.org/1999/xlink" version="1.1" width="50" height="50" viewBox="0 0 50 50" xml:space="preserve">
<desc>Created with Fabric.js 3.5.0</desc>
<defs>
</defs>
<rect x="0" y="0" width="100%" height="100%" fill="#f5f5f5"/>
<g transform="matrix(0.3555 0 0 0.3555 25.002 25.002)" id="923120">
<g style="" vector-effect="non-scaling-stroke">
		<g transform="matrix(1 0 0 1 -0.2236 8.1)" id="Layer_1">
<path style="stroke: none; stroke-width: 1; stroke-dasharray: none; stroke-linecap: butt; stroke-dashoffset: 0; stroke-linejoin: miter; stroke-miterlimit: 4; is-custom-font: none; font-file-url: none; fill: rgb(255,79,64); fill-rule: nonzero; opacity: 1;" transform=" translate(-63.7764, -72.1)" d="M 105.6 102.6 c 10.6 -8.2 18.3 -19.4 18 -32.2 c -0.3 -10.7 -6 -20.2 -14.6 -27.5 c 0 0 -7.5 -2 -10.9 -3.9 C 87.7 33 76.8 26.8 65.4 26.8 c -31.1 0 -64 26.3 -61.3 51.8 c 2.4 22.3 31.4 38.6 58.7 38.8 L 105.6 102.6 z" stroke-linecap="round"/>
</g>
		<g transform="matrix(1 0 0 1 -18.7532 48.0027)" id="Layer_1">
<path style="stroke: none; stroke-width: 1; stroke-dasharray: none; stroke-linecap: butt; stroke-dashoffset: 0; stroke-linejoin: miter; stroke-miterlimit: 4; is-custom-font: none; font-file-url: none; fill: rgb(201,44,40); fill-rule: nonzero; opacity: 1;" transform=" translate(-45.2468, -112.0027)" d="M 46.7 115.4 c -0.2 0 -0.5 0 -0.7 -0.1 c -1 -0.2 -2 -0.5 -3 -0.8 c -1.6 -0.5 -2.5 -2.1 -2.1 -3.7 c 0.5 -1.6 2.1 -2.5 3.7 -2.1 c 0.9 0.3 1.9 0.5 2.8 0.7 c 1.6 0.4 2.6 2 2.2 3.6 C 49.2 114.5 48 115.4 46.7 115.4 z" stroke-linecap="round"/>
</g>
		<g transform="matrix(1 0 0 1 19.5662 43.3838)" id="Layer_1">
<path style="stroke: none; stroke-width: 1; stroke-dasharray: none; stroke-linecap: butt; stroke-dashoffset: 0; stroke-linejoin: miter; stroke-miterlimit: 4; is-custom-font: none; font-file-url: none; fill: rgb(201,44,40); fill-rule: nonzero; opacity: 1;" transform=" translate(-83.5662, -107.3838)" d="M 63.4 117.5 c -1.7 0 -3 -1.3 -3 -3 s 1.3 -3 3 -3 c 3.4 0 6.7 -0.3 9.9 -0.8 c 9.7 -1.7 20.4 -6.5 28.6 -12.8 c 1.3 -1 3.2 -0.8 4.2 0.5 c 1 1.3 0.8 3.2 -0.5 4.2 c -9 6.9 -20.7 12.2 -31.3 14 C 70.8 117.2 67.1 117.5 63.4 117.5 z" stroke-linecap="round"/>
</g>
		<g transform="matrix(1 0 0 1 22.1781 -26.4)" id="Layer_1">
<path style="stroke: none; stroke-width: 1; stroke-dasharray: none; stroke-linecap: butt; stroke-dashoffset: 0; stroke-linejoin: miter; stroke-miterlimit: 4; is-custom-font: none; font-file-url: none; fill: rgb(201,44,40); fill-rule: nonzero; opacity: 1;" transform=" translate(-86.1781, -37.6)" d="M 107 48.3 c -0.7 0 -1.4 -0.2 -2 -0.7 c -10.6 -9.1 -25.7 -14.7 -39.6 -14.7 c -1.7 0 -3 -1.3 -3 -3 s 1.3 -3 3 -3 c 15.2 0 31.9 6.2 43.5 16.2 c 1.3 1.1 1.4 3 0.3 4.2 C 108.6 47.9 107.8 48.3 107 48.3 z" stroke-linecap="round"/>
</g>
		<g transform="matrix(1 0 0 1 -38.8754 -10.4305)" id="Layer_1">
<path style="stroke: none; stroke-width: 1; stroke-dasharray: none; stroke-linecap: butt; stroke-dashoffset: 0; stroke-linejoin: miter; stroke-miterlimit: 4; is-custom-font: none; font-file-url: none; fill: rgb(255,255,255); fill-rule: nonzero; opacity: 1;" transform=" translate(-25.1247, -53.5695)" d="M 18.5 63.1 c -0.6 0 -1.2 -0.2 -1.7 -0.5 c -1.4 -0.9 -1.7 -2.8 -0.8 -4.2 c 3.5 -5 8.3 -9.8 14 -13.8 c 1.4 -1 3.2 -0.6 4.2 0.7 c 1 1.4 0.6 3.2 -0.7 4.2 c -5.1 3.6 -9.5 7.9 -12.5 12.3 C 20.4 62.7 19.4 63.1 18.5 63.1 z" stroke-linecap="round"/>
</g>
		<g transform="matrix(1 0 0 1 2.1177 -38.8309)" id="Layer_1">
<path style="stroke: none; stroke-width: 1; stroke-dasharray: none; stroke-linecap: butt; stroke-dashoffset: 0; stroke-linejoin: miter; stroke-miterlimit: 4; is-custom-font: none; font-file-url: none; fill: rgb(68,75,84); fill-rule: nonzero; opacity: 1;" transform=" translate(-66.1177, -25.1691)" d="M 49.7 32.8 c -12.1 1.1 -18.2 3.7 -18.7 -0.4 c -0.4 -3.5 9 -11.6 20.1 -12.4 c 4.7 -0.4 10.6 0.8 10.6 0.8 c 1.2 -7 -1.2 -17.7 4.9 -18.4 c 6.3 -0.8 3.3 9.9 4 17.1 c 0 0 18.1 -14.1 23.9 -5.8 c 2.6 3.8 -12.3 10.1 -12.3 10.1 s 21 1.1 18.9 7.2 c -2 6.2 -20.4 4.6 -27.6 0.7 c 0 0 4.4 13.7 -3.5 14.9 c -7.8 1.3 -7.2 -15.3 -7.2 -15.3 s -10 21.2 -17.8 15.8 C 39.4 43 49.7 32.8 49.7 32.8 z" stroke-linecap="round"/>
</g>
		<g transform="matrix(1 0 0 1 -12.4 0.2)" id="Layer_1">
<circle style="stroke: none; stroke-width: 1; stroke-dasharray: none; stroke-linecap: butt; stroke-dashoffset: 0; stroke-linejoin: miter; stroke-miterlimit: 4; is-custom-font: none; font-file-url: none; fill: rgb(68,75,84); fill-rule: nonzero; opacity: 1;" cx="0" cy="0" r="3"/>
</g>
		<g transform="matrix(1 0 0 1 15.2 -3)" id="Layer_1">
<circle style="stroke: none; stroke-width: 1; stroke-dasharray: none; stroke-linecap: butt; stroke-dashoffset: 0; stroke-linejoin: miter; stroke-miterlimit: 4; is-custom-font: none; font-file-url: none; fill: rgb(68,75,84); fill-rule: nonzero; opacity: 1;" cx="0" cy="0" r="3"/>
</g>
		<g transform="matrix(1 0 0 1 -2.4215 23.536)" id="Layer_1">
<path style="stroke: none; stroke-width: 1; stroke-dasharray: none; stroke-linecap: butt; stroke-dashoffset: 0; stroke-linejoin: miter; stroke-miterlimit: 4; is-custom-font: none; font-file-url: none; fill: rgb(201,44,40); fill-rule: nonzero; opacity: 1;" transform=" translate(-61.5785, -87.5359)" d="M 48.9 79.5 c -5.9 5.2 1.6 15.6 4.8 19 c 3.9 4.2 13.8 0.2 19.7 -9.3 c 0.7 -1 4.8 -7.8 2.2 -11.4 C 72.6 73.7 55.4 73.7 48.9 79.5 z" stroke-linecap="round"/>
</g>
		<g transform="matrix(1 0 0 1 -50.5 7.8)" id="Layer_1">
<circle style="stroke: none; stroke-width: 1; stroke-dasharray: none; stroke-linecap: butt; stroke-dashoffset: 0; stroke-linejoin: miter; stroke-miterlimit: 4; is-custom-font: none; font-file-url: none; fill: rgb(255,255,255); fill-rule: nonzero; opacity: 1;" cx="0" cy="0" r="3"/>
</g>
</g>
</g>
</svg>